# xmcd
#
# Track frame offsets: 
#        150
#        12633
#        27486
#        44144
#        52456
#        72153
#        99601
#        108812
#        140197
#        175427
#        200530
#        246142
#        276841
#
# Disc length: 4158 seconds
#
# Revision: 0
# Processed by: cddbd v1.5.2PL0 Copyright (c) Steve Scherf et al.
# Submitted via: ExactAudioCopy v0.99pb4
#
DISCID=d2103c0d
DTITLE=Little Memphis Blues Orcestra - Live At Workplay Theatre
DYEAR=2006
DGENRE=
TTITLE0=Not Fade Away >
TTITLE1=Drums >
TTITLE2=Who Do You Love >
TTITLE3=Not Fade Away
TTITLE4=Hip Hug-Her
TTITLE5=Killing Floor
TTITLE6=Intro\\Crowd
TTITLE7=Call Me the Breeze
TTITLE8=Whipping Post
TTITLE9=Use Me
TTITLE10=Dance to the Music
TTITLE11=Why Does Love Got to be so Sad
TTITLE12=Gonna Move
EXTD=
EXTT0=
EXTT1=
EXTT2=
EXTT3=
EXTT4=
EXTT5=
EXTT6=
EXTT7=
EXTT8=
EXTT9=
EXTT10=
EXTT11=
EXTT12=
PLAYORDER=
